<svg xmlns="http://www.w3.org/2000/svg" width="157" height="26" fill="none"><path fill="#FF471F" d="M29.13 0H20.6c-.71 0-1.3.58-1.3 1.29v8.36h-8.36c-.7 0-1.29.58-1.29 1.29v8.36H1.3c-.71 0-1.29.58-1.29 1.29v5.14h14.8c.7 0 1.28-.58 1.28-1.3V17L13 16.08h11.46c.7 0 1.29-.58 1.29-1.3V7.36l-3.08-.9h3.08v-.02h8.36c.71 0 1.3-.58 1.3-1.29V0h-6.27Z"/><path fill="#fff" d="M149.19 12.97a3.97 3.97 0 0 0-3.86 3.95 3.97 3.97 0 0 0 3.86 3.95c2.1 0 3.85-1.8 3.85-3.95a3.95 3.95 0 0 0-3.85-3.95Zm0 11.72a7.84 7.84 0 0 1-5.52-2.25 7.87 7.87 0 0 1-2.29-5.52 7.73 7.73 0 0 1 7.81-7.77c1.37 0 2.61.49 3.7 1.47l.16.13V.42H157V24.4h-3.96v-1.18l-.16.17a4.92 4.92 0 0 1-3.69 1.3Zm-16.9-12.18c-1.27 0-2.54.88-3.23 2.25l-.13.27h6.76l-.13-.27c-.75-1.4-1.99-2.25-3.26-2.25Zm0 12.25h-.03a7.19 7.19 0 0 1-5.2-2.35 7.88 7.88 0 0 1-1.99-4.58c-.03-.29-.06-.58-.06-.91 0-.65.1-1.34.26-2.03.3-1.3.92-2.51 1.8-3.42a7.45 7.45 0 0 1 2.35-1.74 6.6 6.6 0 0 1 2.88-.62 6.9 6.9 0 0 1 5.23 2.35 7.76 7.76 0 0 1 2.05 5.46v.75H128.6l.04.23c.42 2.02 1.96 3.5 3.66 3.5h.03c.95-.07 2-.66 2.61-1.18l.36-.3 2.71 2.36-.49.42a6.8 6.8 0 0 1-1.3.98h-.03a7.9 7.9 0 0 1-3.9 1.08Zm-9.53-.36h-11.83v-3.43l6.99-8.1h-7.03V9.44h11.83v3.43l-6.83 8h6.86v3.53ZM104.61 7.64a2.54 2.54 0 0 1-2.55-2.51c0-.69.26-1.3.75-1.77a2.5 2.5 0 0 1 1.8-.75 2.54 2.54 0 0 1 2.52 2.52 2.54 2.54 0 0 1-2.52 2.51Zm2.12 16.76h-4.24V9.44h4.24V24.4Zm-13.33 0h-3.6L83.75 9.44h4.22l3.65 8.95 3.63-8.95h4.25L93.41 24.4ZM75.83 12.5c-1.27 0-2.55.88-3.23 2.25l-.13.27h6.76l-.13-.27c-.75-1.4-2-2.25-3.27-2.25Zm0 12.25h-.03a7.19 7.19 0 0 1-5.2-2.35 7.87 7.87 0 0 1-1.99-4.58 8 8 0 0 1-.07-.91c0-.65.1-1.34.27-2.03.29-1.3.91-2.51 1.8-3.42a7.46 7.46 0 0 1 2.35-1.74 6.6 6.6 0 0 1 2.87-.62 6.89 6.89 0 0 1 5.23 2.35 7.74 7.74 0 0 1 2.06 5.46v.75H72.14l.03.23c.43 2.02 1.96 3.5 3.66 3.5h.03c.95-.07 2-.66 2.62-1.18l.36-.3 2.71 2.36-.49.42c-.36.33-.82.72-1.3.98h-.04a7.9 7.9 0 0 1-3.89 1.08Zm-10.52-.36h-4.25V.42h4.25V24.4ZM51.03 12.5c-1.27 0-2.55.88-3.23 2.25l-.13.27h6.76l-.13-.27c-.75-1.4-2-2.25-3.27-2.25Zm0 12.25H51a7.19 7.19 0 0 1-5.2-2.35 7.87 7.87 0 0 1-1.99-4.58 8 8 0 0 1-.07-.91c0-.65.1-1.34.27-2.03.29-1.3.91-2.51 1.8-3.42a7.46 7.46 0 0 1 2.35-1.74 6.6 6.6 0 0 1 2.87-.62 6.89 6.89 0 0 1 5.23 2.35 7.74 7.74 0 0 1 2.06 5.46v.75H47.34l.03.23c.43 2.02 1.96 3.5 3.66 3.5h.03c.95-.07 2-.66 2.62-1.18l.36-.3 2.7 2.36-.48.42c-.36.33-.82.72-1.3.98h-.04a7.9 7.9 0 0 1-3.89 1.08Z"/></svg>